<svg width="244" height="244" xmlns="http://www.w3.org/2000/svg" xmlns:xlink="http://www.w3.org/1999/xlink" overflow="hidden"><defs><clipPath id="clip0"><rect x="167" y="378" width="244" height="244"/></clipPath></defs><g clip-path="url(#clip0)" transform="translate(-167 -378)"><rect x="170" y="381" width="114" height="114" stroke="#000000" stroke-width="6" stroke-miterlimit="8" fill="#F44336"/><path d="M227 414.139 212.997 446.317 241.004 446.317ZM216.121 396 219.106 396 234.894 396 237.879 396 274 479 255.227 479 247.038 460.184 206.962 460.184 198.773 479 180 479Z" fill-rule="evenodd"/><rect x="293" y="381" width="114" height="114" stroke="#000000" stroke-width="6" stroke-miterlimit="8" fill="#4CAF50"/><path d="M325.451 442.506 325.451 465.352 360.051 465.352C368.93 464.067 373.865 461.187 373.662 454.291 373.048 448.625 372.434 444.546 358.616 442.959L325.451 442.506ZM325.451 409.417 325.451 429.09 358.616 429.09 358.616 428.908C364.143 426.717 369.363 425.659 369.67 419.162 369.67 415.309 367.828 411.003 358.922 410.096 350.324 409.379 338.4 409.424 325.451 409.417ZM303 396 319.483 396 325.451 396 360.765 396 360.765 396.165C384.86 396.835 390.664 410.157 391.166 413.043 391.882 427.774 383.079 431.627 375.198 434.8 388.607 437.218 396.795 445.075 397 456.331 395.874 472.196 379.701 479.221 358.923 478.995 358.928 478.919 358.933 478.844 358.938 478.768L325.451 478.768 319.483 478.768 303 478.768 303 396Z" fill-rule="evenodd"/><rect x="170" y="505" width="114" height="114" stroke="#000000" stroke-width="6" stroke-miterlimit="8" fill="#2196F3"/><path d="M266.812 584.322C253.016 603.971 224.008 609.905 202.02 597.577 180.033 585.249 173.392 559.326 187.188 539.678 200.984 520.029 229.992 514.095 251.98 526.423 258.169 529.893 263.368 534.606 267.163 540.185L250.24 549.377C241.745 538.845 224.453 535.958 211.617 542.929 198.782 549.901 195.264 564.09 203.76 574.623 212.255 585.155 229.547 588.042 242.383 581.071 245.388 579.439 247.978 577.344 250.011 574.902Z" fill-rule="evenodd"/><rect x="293" y="505" width="114" height="113" stroke="#000000" stroke-width="6" stroke-miterlimit="8" fill="#EDEDED"/></g></svg>